{
  "accessors": [
    {
      "name": "Deer_mesh_id37-Mesh_0_positions",
      "componentType": 5126,
      "count": 22390,
      "min": [
        -0.22713199257850647,
        -0.00010299999848939478,
        -0.3589929938316345
      ],
      "max": [
        0.3170219957828522,
        1.1421619653701782,
        0.5805540084838867
      ],
      "type": "VEC3",
      "bufferView": 0,
      "byteOffset": 0
    },
    {
      "name": "Deer_mesh_id37-Mesh_0_normals",
      "componentType": 5126,
      "count": 22390,
      "min": [
        -0.9999755024909973,
        -0.9999983310699463,
        -0.999772310256958
      ],
      "max": [
        0.9999614357948303,
        0.9999532699584961,
        0.9999536871910095
      ],
      "type": "VEC3",
      "bufferView": 1,
      "byteOffset": 0
    },
    {
      "name": "Deer_mesh_id37-Mesh_0_texcoords",
      "componentType": 5126,
      "count": 22390,
      "min": [
        0.008954999968409538,
        0.008441999554634094
      ],
      "max": [
        0.9912440180778503,
        0.9915329813957214
      ],
      "type": "VEC2",
      "bufferView": 2,
      "byteOffset": 0
    },
    {
      "name": "Deer_mesh_id37-Mesh_0_indices",
      "componentType": 5123,
      "count": 125868,
      "min": [
        0
      ],
      "max": [
        22389
      ],
      "type": "SCALAR",
      "bufferView": 3,
      "byteOffset": 0
    }
  ],
  "asset": {
    "generator": "obj2gltf",
    "version": "2.0"
  },
  "buffers": [
    {
      "name": "deer",
      "byteLength": 968216,
      "uri": "data:application/octet-stream;base64,"
    }
  ],
  "bufferViews": [
    {
      "name": "bufferView_0",
      "buffer": 0,
      "byteLength": 268680,
      "byteOffset": 0,
      "byteStride": 12,
      "target": 34962
    },
    {
      "name": "bufferView_1",
      "buffer": 0,
      "byteLength": 268680,
      "byteOffset": 268680,
      "byteStride": 12,
      "target": 34962
    },
    {
      "name": "bufferView_2",
      "buffer": 0,
      "byteLength": 179120,
      "byteOffset": 537360,
      "byteStride": 8,
      "target": 34962
    },
    {
      "name": "bufferView_3",
      "buffer": 0,
      "byteLength": 251736,
      "byteOffset": 716480,
      "target": 34963
    }
  ],
  "materials": [
    {
      "name": "Deer",
      "pbrMetallicRoughness": {
        "baseColorFactor": [
          0.5,
          0.5,
          0.5,
          1
        ],
        "metallicFactor": 0,
        "roughnessFactor": 1
      },
      "emissiveFactor": [
        0,
        0,
        0
      ],
      "alphaMode": "OPAQUE",
      "doubleSided": false
    }
  ],
  "meshes": [
    {
      "name": "Deer_mesh_id37-Mesh",
      "primitives": [
        {
          "attributes": {
            "POSITION": 0,
            "NORMAL": 1,
            "TEXCOORD_0": 2
          },
          "indices": 3,
          "material": 0,
          "mode": 4
        }
      ]
    }
  ],
  "nodes": [
    {
      "name": "Deer_mesh_id37",
      "mesh": 0
    }
  ],
  "scene": 0,
  "scenes": [
    {
      "nodes": [
        0
      ]
    }
  ]
}
